<svg xmlns="http://www.w3.org/2000/svg" width="15" height="16" aria-hidden="true" class="icon" viewBox="0 0 15 16"><path d="M2.91 6.545a1.455 1.455 0 1 0 0 2.91 1.455 1.455 0 0 0 0-2.91ZM0 8a2.91 2.91 0 1 1 5.818 0A2.91 2.91 0 0 1 0 8Zm11.64-6.545a1.455 1.455 0 1 0 0 2.909 1.455 1.455 0 0 0 0-2.91ZM8.73 2.909a2.91 2.91 0 1 1 5.818 0 2.91 2.91 0 0 1-5.818 0Zm2.906 8.727a1.455 1.455 0 1 0 0 2.91 1.455 1.455 0 0 0 0-2.91Zm-2.909 1.455a2.91 2.91 0 1 1 5.819 0 2.91 2.91 0 0 1-5.819 0Z" clip-rule="evenodd"/><path d="M4.164 8.732a.727.727 0 0 1 .995-.262l4.967 2.894a.727.727 0 0 1-.732 1.257L4.427 9.727a.727.727 0 0 1-.263-.995ZM10.38 3.64a.727.727 0 0 1-.26.995L5.16 7.53a.727.727 0 0 1-.734-1.256l4.96-2.895a.727.727 0 0 1 .995.262Z" clip-rule="evenodd"/></svg>