<svg xmlns="http://www.w3.org/2000/svg" width="16" height="16" aria-hidden="true" class="icon" viewBox="0 0 16 16"><path d="M8 1.455a6.545 6.545 0 1 0 0 13.09 6.545 6.545 0 0 0 0-13.09ZM0 8a8 8 0 1 1 16 0A8 8 0 0 1 0 8Z" clip-rule="evenodd"/><path d="M5.67 9.015a.727.727 0 0 0-1.16.876l.58-.436-.58.436v.002l.003.003.005.006.015.02.051.063c.043.05.103.12.18.2.155.161.38.373.672.585.58.422 1.455.866 2.564.866 1.11 0 1.984-.444 2.564-.866a5.047 5.047 0 0 0 .852-.785 2.6 2.6 0 0 0 .05-.063l.016-.02.005-.006.002-.003.001-.001-.58-.437.58.436a.727.727 0 0 0-1.16-.876l-.004.004-.024.03a3.595 3.595 0 0 1-.593.544c-.42.306-1 .589-1.709.589-.709 0-1.289-.283-1.709-.588a3.597 3.597 0 0 1-.617-.575l-.004-.004Zm-.58-3.197c0-.401.327-.727.728-.727h.007a.727.727 0 0 1 0 1.454h-.007a.727.727 0 0 1-.727-.727Zm4.365 0c0-.401.325-.727.727-.727h.007a.727.727 0 1 1 0 1.454h-.007a.727.727 0 0 1-.727-.727Z" clip-rule="evenodd"/></svg>