<?xml version="1.0" standalone="no"?>
<!DOCTYPE svg PUBLIC "-//W3C//DTD SVG 20010904//EN"
 "http://www.w3.org/TR/2001/REC-SVG-20010904/DTD/svg10.dtd">
<svg version="1.0" xmlns="http://www.w3.org/2000/svg"
 width="700.000000pt" height="700.000000pt" viewBox="0 0 700.000000 700.000000"
 preserveAspectRatio="xMidYMid meet">
<metadata>
Created by potrace 1.14, written by Peter Selinger 2001-2017
</metadata>
<g transform="translate(0.000000,700.000000) scale(0.100000,-0.100000)"
fill="#000000" stroke="none">
<path d="M3280 6994 c-19 -2 -84 -9 -145 -14 -639 -62 -1264 -315 -1795 -726
-149 -115 -481 -446 -595 -594 -410 -532 -653 -1132 -727 -1795 -17 -155 -17
-575 0 -730 75 -673 332 -1300 748 -1820 114 -143 339 -372 484 -494 537 -451
1163 -717 1885 -803 142 -17 586 -17 730 0 682 79 1268 318 1802 734 138 107
389 351 512 498 451 538 717 1162 803 1885 16 139 16 595 0 730 -77 629 -275
1158 -620 1649 -234 333 -577 668 -917 896 -460 308 -968 495 -1535 566 -117
15 -552 27 -630 18z m-239 -1667 c18 -12 43 -37 55 -54 17 -25 492 -1441 877
-2613 l80 -245 195 588 c185 561 196 591 232 627 58 58 89 62 532 58 414 -3
412 -3 465 -60 29 -30 53 -89 53 -128 0 -39 -24 -98 -53 -128 -52 -56 -57 -57
-412 -62 l-329 -5 -257 -777 c-177 -538 -264 -788 -282 -811 -34 -45 -83 -67
-150 -67 -62 0 -107 25 -143 77 -17 25 -491 1438 -877 2613 l-80 245 -195
-589 c-185 -559 -196 -590 -232 -626 -58 -58 -90 -62 -532 -58 -414 3 -412 3
-465 60 -29 30 -53 89 -53 128 0 39 24 98 53 128 52 56 57 57 411 62 l330 5
260 787 c190 574 267 794 285 812 57 60 169 76 232 33z"/>
</g>
</svg>
